HIERARCHY
ROOT Hips
{
	OFFSET 0.000000 71.427986 0.000000
	CHANNELS 6 Xposition Yposition Zposition Xrotation Yrotation Zrotation
	JOINT Pelvis
	{
		OFFSET 0.000000 0.000000 0.000000
		CHANNELS 3 Xrotation Yrotation Zrotation
		JOINT LeftUpLeg
		{
			OFFSET 6.797100 -2.508499 -1.318700
			CHANNELS 3 Xrotation Yrotation Zrotation
			JOINT LeftLeg
			{
				OFFSET 0.069008 -29.241863 0.690200
				CHANNELS 3 Xrotation Yrotation Zrotation
				JOINT LeftFoot
				{
					OFFSET -0.069008 -29.568123 -0.266800
					CHANNELS 3 Xrotation Yrotation Zrotation
					JOINT LeftToeBase
					{
						OFFSET 3.145500 -8.631000 16.059900
						CHANNELS 3 Xrotation Yrotation Zrotation
						End Site
						{
							OFFSET 0.000000 18.501587 0.000000
						}
					}
				}
			}
			JOINT Left_ShortSleeve
			{
				OFFSET 0.265923 -10.480953 1.153800
				CHANNELS 3 Xrotation Yrotation Zrotation
				End Site
				{
					OFFSET 1.725763 19.823879 0.000000
				}
			}
		}
		JOINT RightUpLeg
		{
			OFFSET -6.797100 -2.508499 -1.318700
			CHANNELS 3 Xrotation Yrotation Zrotation
			JOINT RightLeg
			{
				OFFSET -0.082453 -29.241932 0.688000
				CHANNELS 3 Xrotation Yrotation Zrotation
				JOINT RightFoot
				{
					OFFSET 0.082453 -29.568058 -0.264600
					CHANNELS 3 Xrotation Yrotation Zrotation
					JOINT RightToeBase
					{
						OFFSET -3.115300 -8.682800 16.113400
						CHANNELS 3 Xrotation Yrotation Zrotation
						End Site
						{
							OFFSET 0.000000 18.567114 0.000000
						}
					}
				}
			}
			JOINT Right_ShortSleeve
			{
				OFFSET -0.265923 -10.480953 1.153800
				CHANNELS 3 Xrotation Yrotation Zrotation
				End Site
				{
					OFFSET -1.725766 19.823910 0.000000
				}
			}
		}
	}
	JOINT Spine
	{
		OFFSET 0.000000 13.368103 0.470500
		CHANNELS 3 Xrotation Yrotation Zrotation
		JOINT Spine1
		{
			OFFSET 0.147000 13.837402 0.538800
			CHANNELS 3 Xrotation Yrotation Zrotation
			JOINT Spine2
			{
				OFFSET 0.168000 16.242897 -1.435500
				CHANNELS 3 Xrotation Yrotation Zrotation
				JOINT Neck
				{
					OFFSET 0.217200 18.631500 -1.679100
					CHANNELS 3 Xrotation Yrotation Zrotation
					JOINT Head
					{
						OFFSET 0.000000 6.599396 1.385900
						CHANNELS 3 Xrotation Yrotation Zrotation
						JOINT Hat
						{
							OFFSET -0.532200 27.220596 -10.096100
							CHANNELS 3 Xrotation Yrotation Zrotation
							End Site
							{
								OFFSET 0.000000 22.029861 0.000000
							}
						}
						JOINT HairD
						{
							OFFSET -10.777400 17.437393 -1.325900
							CHANNELS 3 Xrotation Yrotation Zrotation
							JOINT HairD1
							{
								OFFSET -3.290299 -11.051193 1.062200
								CHANNELS 3 Xrotation Yrotation Zrotation
								End Site
								{
									OFFSET 0.000000 11.579437 0.000000
								}
							}
						}
						JOINT HairB
						{
							OFFSET -10.777400 17.437393 1.467900
							CHANNELS 3 Xrotation Yrotation Zrotation
							JOINT HairB1
							{
								OFFSET -1.561200 -12.956299 3.590200
								CHANNELS 3 Xrotation Yrotation Zrotation
								End Site
								{
									OFFSET 0.000000 13.534866 0.000000
								}
							}
						}
						JOINT HairA
						{
							OFFSET 9.713100 17.437393 1.467900
							CHANNELS 3 Xrotation Yrotation Zrotation
							JOINT HairA1
							{
								OFFSET 1.561200 -12.956299 3.590200
								CHANNELS 3 Xrotation Yrotation Zrotation
								End Site
								{
									OFFSET 0.000000 13.534866 0.000000
								}
							}
						}
						JOINT HairC
						{
							OFFSET 9.713100 17.437393 -1.325900
							CHANNELS 3 Xrotation Yrotation Zrotation
							JOINT HairC1
							{
								OFFSET 3.290300 -11.051193 1.062200
								CHANNELS 3 Xrotation Yrotation Zrotation
								End Site
								{
									OFFSET 0.000000 11.579437 0.000000
								}
							}
						}
					}
				}
				JOINT LeftShoulder
				{
					OFFSET 5.101800 15.108002 -2.763700
					CHANNELS 3 Xrotation Yrotation Zrotation
					JOINT LeftArm
					{
						OFFSET 9.825497 2.506317 -1.597400
						CHANNELS 3 Xrotation Yrotation Zrotation
						JOINT LeftForeArm
						{
							OFFSET 21.966244 0.000000 0.000000
							CHANNELS 3 Xrotation Yrotation Zrotation
							JOINT LeftHand
							{
								OFFSET 33.879036 0.000000 0.000000
								CHANNELS 3 Xrotation Yrotation Zrotation
								JOINT LeftHandThumb1
								{
									OFFSET 6.715286 -2.359680 3.363841
									CHANNELS 3 Xrotation Yrotation Zrotation
									JOINT LeftHandThumb2
									{
										OFFSET 2.507072 -1.447464 1.447461
										CHANNELS 3 Xrotation Yrotation Zrotation
										JOINT LeftHandThumb3
										{
											OFFSET 2.898338 -1.673355 1.673357
											CHANNELS 3 Xrotation Yrotation Zrotation
											End Site
											{
												OFFSET -0.295959 3.727692 -0.131651
											}
										}
									}
								}
								JOINT LeftHandIndex1
								{
									OFFSET 14.190811 -0.254547 3.840278
									CHANNELS 3 Xrotation Yrotation Zrotation
									JOINT LeftHandIndex2
									{
										OFFSET 3.551727 0.000000 -0.000000
										CHANNELS 3 Xrotation Yrotation Zrotation
										JOINT LeftHandIndex3
										{
											OFFSET 2.894196 0.000000 0.000000
											CHANNELS 3 Xrotation Yrotation Zrotation
											End Site
											{
												OFFSET -1.000603 2.690872 0.366626
											}
										}
									}
								}
								JOINT LeftHandMiddle1
								{
									OFFSET 13.776489 0.000000 0.000000
									CHANNELS 3 Xrotation Yrotation Zrotation
									JOINT LeftHandMiddle2
									{
										OFFSET 3.438232 0.000000 0.000000
										CHANNELS 3 Xrotation Yrotation Zrotation
										JOINT LeftHandMiddle3
										{
											OFFSET 3.691551 0.000000 0.000000
											CHANNELS 3 Xrotation Yrotation Zrotation
											End Site
											{
												OFFSET -1.082298 3.499527 0.457670
											}
										}
									}
								}
								JOINT LeftHandRing1
								{
									OFFSET 13.966164 -0.268127 -3.067488
									CHANNELS 3 Xrotation Yrotation Zrotation
									JOINT LeftHandRing2
									{
										OFFSET 3.162567 0.000000 0.000000
										CHANNELS 3 Xrotation Yrotation Zrotation
										JOINT LeftHandRing3
										{
											OFFSET 3.324348 0.000000 0.000000
											CHANNELS 3 Xrotation Yrotation Zrotation
											End Site
											{
												OFFSET -0.861900 3.184998 0.405154
											}
										}
									}
								}
								JOINT LeftHandPinky1
								{
									OFFSET 13.131393 -0.168503 -5.746925
									CHANNELS 3 Xrotation Yrotation Zrotation
									JOINT LeftHandPinky2
									{
										OFFSET 2.849182 0.000000 0.000000
										CHANNELS 3 Xrotation Yrotation Zrotation
										JOINT LeftHandPinky3
										{
											OFFSET 2.805038 0.000000 0.000000
											CHANNELS 3 Xrotation Yrotation Zrotation
											End Site
											{
												OFFSET -0.882500 2.642609 0.325652
											}
										}
									}
								}
							}
							JOINT Left_Sleeve
							{
								OFFSET 6.592125 -0.646545 0.805568
								CHANNELS 3 Xrotation Yrotation Zrotation
								End Site
								{
									OFFSET -0.000179 20.275787 -0.000000
								}
							}
						}
					}
				}
				JOINT RightShoulder
				{
					OFFSET -5.731700 15.108002 -2.763700
					CHANNELS 3 Xrotation Yrotation Zrotation
					JOINT RightArm
					{
						OFFSET -9.825497 2.506317 -1.597400
						CHANNELS 3 Xrotation Yrotation Zrotation
						JOINT RightForeArm
						{
							OFFSET -21.966242 0.000000 0.000000
							CHANNELS 3 Xrotation Yrotation Zrotation
							JOINT RightHand
							{
								OFFSET -33.879032 0.000000 0.000000
								CHANNELS 3 Xrotation Yrotation Zrotation
								JOINT RightHandThumb1
								{
									OFFSET -6.715286 -2.359680 3.363841
									CHANNELS 3 Xrotation Yrotation Zrotation
									JOINT RightHandThumb2
									{
										OFFSET -2.507072 -1.447464 1.447461
										CHANNELS 3 Xrotation Yrotation Zrotation
										JOINT RightHandThumb3
										{
											OFFSET -2.898338 -1.673355 1.673357
											CHANNELS 3 Xrotation Yrotation Zrotation
											End Site
											{
												OFFSET 0.295959 3.727692 -0.131651
											}
										}
									}
								}
								JOINT RightHandIndex1
								{
									OFFSET -14.190811 -0.254547 3.840278
									CHANNELS 3 Xrotation Yrotation Zrotation
									JOINT RightHandIndex2
									{
										OFFSET -3.551727 0.000000 -0.000000
										CHANNELS 3 Xrotation Yrotation Zrotation
										JOINT RightHandIndex3
										{
											OFFSET -2.894196 0.000000 0.000000
											CHANNELS 3 Xrotation Yrotation Zrotation
											End Site
											{
												OFFSET 1.000603 2.690872 0.366626
											}
										}
									}
								}
								JOINT RightHandMiddle1
								{
									OFFSET -13.776489 0.000000 0.000000
									CHANNELS 3 Xrotation Yrotation Zrotation
									JOINT RightHandMiddle2
									{
										OFFSET -3.438232 0.000000 0.000000
										CHANNELS 3 Xrotation Yrotation Zrotation
										JOINT RightHandMiddle3
										{
											OFFSET -3.691551 0.000000 0.000000
											CHANNELS 3 Xrotation Yrotation Zrotation
											End Site
											{
												OFFSET 1.082298 3.499527 0.457670
											}
										}
									}
								}
								JOINT RightHandRing1
								{
									OFFSET -13.966164 -0.268127 -3.067488
									CHANNELS 3 Xrotation Yrotation Zrotation
									JOINT RightHandRing2
									{
										OFFSET -3.162567 0.000000 0.000000
										CHANNELS 3 Xrotation Yrotation Zrotation
										JOINT RightHandRing3
										{
											OFFSET -3.324348 0.000000 0.000000
											CHANNELS 3 Xrotation Yrotation Zrotation
											End Site
											{
												OFFSET 0.861900 3.184998 0.405154
											}
										}
									}
								}
								JOINT RightHandPinky1
								{
									OFFSET -13.131393 -0.168503 -5.746925
									CHANNELS 3 Xrotation Yrotation Zrotation
									JOINT RightHandPinky2
									{
										OFFSET -2.849182 0.000000 0.000000
										CHANNELS 3 Xrotation Yrotation Zrotation
										JOINT RightHandPinky3
										{
											OFFSET -2.805038 0.000000 0.000000
											CHANNELS 3 Xrotation Yrotation Zrotation
											End Site
											{
												OFFSET 0.882500 2.642609 0.325652
											}
										}
									}
								}
							}
							JOINT Right_Sleeve
							{
								OFFSET -6.592125 -0.646545 0.805568
								CHANNELS 3 Xrotation Yrotation Zrotation
								End Site
								{
									OFFSET 0.000179 20.275787 -0.000000
								}
							}
						}
					}
				}
				JOINT Bind_Right_JacketString
				{
					OFFSET -3.534800 11.969597 7.200700
					CHANNELS 3 Xrotation Yrotation Zrotation
					JOINT Bind_Right_JacketString1
					{
						OFFSET -0.319900 -6.102600 2.794100
						CHANNELS 3 Xrotation Yrotation Zrotation
						End Site
						{
							OFFSET 0.000000 6.719452 0.000000
						}
					}
				}
				JOINT Bind_Left_JacketString
				{
					OFFSET 2.904800 11.969597 7.200700
					CHANNELS 3 Xrotation Yrotation Zrotation
					JOINT Bind_Left_JacketString1
					{
						OFFSET 0.364800 -5.904503 3.186800
						CHANNELS 3 Xrotation Yrotation Zrotation
						End Site
						{
							OFFSET 0.000000 6.719513 0.000000
						}
					}
				}
				JOINT HairE
				{
					OFFSET 5.915200 17.612701 -11.592200
					CHANNELS 3 Xrotation Yrotation Zrotation
					JOINT HairE1
					{
						OFFSET 0.289200 -7.171898 -1.284500
						CHANNELS 3 Xrotation Yrotation Zrotation
						End Site
						{
							OFFSET 0.000000 7.291756 0.000000
						}
					}
				}
				JOINT HairF
				{
					OFFSET -0.864800 17.612701 -11.592200
					CHANNELS 3 Xrotation Yrotation Zrotation
					JOINT HairF1
					{
						OFFSET 0.000000 -14.087097 -2.127501
						CHANNELS 3 Xrotation Yrotation Zrotation
						End Site
						{
							OFFSET 0.000000 14.246841 0.000000
						}
					}
				}
				JOINT HairG
				{
					OFFSET -8.087700 17.612701 -11.592200
					CHANNELS 3 Xrotation Yrotation Zrotation
					JOINT HairG1
					{
						OFFSET -0.293600 -6.081398 -0.910100
						CHANNELS 3 Xrotation Yrotation Zrotation
						End Site
						{
							OFFSET 0.000000 6.156120 0.000000
						}
					}
				}
			}
		}
	}
	JOINT Pouch
	{
		OFFSET 0.000000 4.394501 10.847300
		CHANNELS 3 Xrotation Yrotation Zrotation
		End Site
		{
			OFFSET 0.000000 21.880577 0.000000
		}
	}
	JOINT Bag
	{
		OFFSET -13.229000 4.813004 -0.593300
		CHANNELS 3 Xrotation Yrotation Zrotation
		End Site
		{
			OFFSET 0.000000 21.880577 0.000000
		}
	}
	JOINT OccupyGuyFacialAnim_Joint
	{
		OFFSET 1.000000 -70.206398 -1.655000
		CHANNELS 3 Xrotation Yrotation Zrotation
		End Site
		{
			OFFSET 0.000000 21.880577 0.000000
		}
	}
}
MOTION
Frames: 4
Frame Time: 0.033333
0.027807 43.319389 -14.431677 -24.806050 -5.239057 1.091384 -0.000001 -0.000000 0.000000 -61.312279 8.199231 11.418351 95.938429 2.814559 5.280021 -10.970879 0.206396 -1.604795 0.000000 0.000000 0.000000 0.000000 -0.000000 -0.000000 -62.717946 -2.463026 -11.356631 97.513723 9.428761 -0.018477 -9.761657 3.441468 -6.774664 0.000000 0.000000 0.000000 -0.000000 -0.000000 -0.000001 11.923063 3.623720 -2.413376 18.695737 0.839338 0.740052 18.685852 0.832705 0.933914 13.760535 2.881982 -3.663016 -29.051581 18.733156 -1.044257 0.000000 -0.000001 -0.000000 0.000000 -0.000001 -0.000000 0.000000 -0.000001 -0.000000 0.000000 -0.000001 -0.000000 -0.000001 -0.000001 -0.000000 0.000000 -0.000001 -0.000000 -0.000001 -0.000001 -0.000000 0.000000 -0.000001 -0.000000 0.000000 -0.000001 -0.000000 -0.037666 5.311737 -4.747574 -7.137024 -38.272074 -65.290830 -0.000038 -74.016294 -0.000048 38.307727 14.295427 18.934524 -1.606566 -4.712758 -5.980865 8.153743 13.246948 -2.948310 0.000001 0.000001 -0.000001 0.000003 0.000016 0.000009 0.048216 0.815095 -6.770255 0.000000 -0.000000 0.000002 0.000000 -0.001928 0.015982 0.048447 0.817025 -6.786230 0.000003 0.000000 0.000002 0.000001 -0.000002 0.000004 0.048214 0.815114 -6.770238 0.000001 0.000001 -0.000001 -0.018094 4.054276 0.511080 0.037479 -3.239621 -7.277437 0.000000 0.000000 -0.000001 -0.000000 0.000000 0.000002 1.380546 1.665214 4.684497 -9.465912 20.015034 70.534237 -0.000015 77.244242 0.000025 34.669610 -21.336176 -23.182289 9.595226 -0.209897 6.657185 3.611682 -29.736957 -3.127284 -0.000003 0.000001 -0.000002 0.000005 -0.000011 -0.000006 0.188178 -1.609866 13.333317 -0.000002 -0.000001 0.000002 0.000001 -0.000025 -0.000009 0.188183 -1.609847 13.333330 0.000001 0.000000 0.000001 0.000004 -0.000016 -0.000003 0.188179 -1.609853 13.333326 -0.000000 0.000002 -0.000004 -0.000000 -0.000020 -0.000010 0.188183 -1.609861 13.333326 -0.000002 -0.000001 0.000002 0.000001 -0.000001 0.000001 0.000002 -0.000000 -0.000000 0.000001 0.000000 -0.000000 0.000002 -0.000000 -0.000000 0.000002 -0.000000 -0.000000 0.000002 -0.000000 -0.000000 0.000001 0.000000 -0.000000 0.000002 -0.000000 -0.000000 0.000002 -0.000000 -0.000000 0.000002 -0.000000 -0.000000 0.000001 0.000000 -0.000000 -0.000001 -0.000000 0.000000 -0.000001 -0.000000 0.000000 -0.000001 -0.000000 0.000000 
0.029311 43.325180 -14.432474 -24.813345 -5.240141 1.080473 0.000001 -0.000000 0.000000 -61.303994 8.218736 11.443245 95.930451 2.799235 5.287229 -10.971785 0.203637 -1.583642 0.000000 -0.000000 0.000000 0.000000 -0.000000 -0.000001 -62.692776 -2.440097 -11.347658 97.493321 9.432155 0.000659 -9.754086 3.479486 -6.759014 0.000000 -0.000000 0.000000 0.000000 -0.000000 -0.000001 11.848759 3.623627 -2.500462 18.739681 0.842411 0.747096 18.729523 0.838937 0.941615 13.612243 1.909216 -3.440142 -28.554550 13.048063 -1.447566 0.000001 0.000001 -0.000000 0.000001 0.000001 -0.000000 0.000001 0.000001 -0.000000 0.000001 0.000001 -0.000000 -0.000000 -0.000001 0.000000 0.000001 0.000001 -0.000000 -0.000000 -0.000001 0.000000 0.000001 0.000001 -0.000000 0.000001 0.000001 -0.000000 -0.038806 5.320324 -4.752513 -7.197962 -38.200958 -65.365600 -0.000021 -74.005974 -0.000004 38.337469 14.324913 18.990194 -1.606570 -4.712760 -5.980868 8.153742 13.246946 -2.948311 -0.000002 0.000001 0.000001 0.000002 0.000017 0.000008 0.048218 0.815095 -6.770246 0.000003 0.000001 -0.000000 -0.000004 -0.001928 0.015982 0.048449 0.817024 -6.786229 -0.000001 -0.000000 0.000002 0.000001 -0.000001 0.000002 0.048212 0.815115 -6.770241 -0.000000 0.000000 0.000001 -0.018095 4.054276 0.511082 0.037480 -3.239620 -7.277438 -0.000001 -0.000001 0.000003 0.000000 0.000000 -0.000003 1.380179 1.664550 4.665271 -9.537347 20.081977 70.529735 0.000009 77.111115 0.000007 34.684145 -21.296542 -23.160999 9.595230 -0.209898 6.657186 3.611680 -29.736957 -3.127285 -0.000000 -0.000001 0.000000 0.000002 -0.000012 -0.000006 0.188179 -1.609867 13.333318 -0.000000 -0.000003 0.000002 -0.000003 -0.000025 -0.000008 0.188182 -1.609853 13.333328 0.000000 0.000002 -0.000004 0.000004 -0.000013 -0.000005 0.188176 -1.609855 13.333329 0.000003 0.000000 -0.000001 -0.000001 -0.000020 -0.000009 0.188180 -1.609856 13.333327 -0.000003 0.000001 0.000001 -0.000000 0.000000 0.000001 -0.000000 -0.000000 -0.000000 -0.000000 -0.000000 0.000000 -0.000000 -0.000000 -0.000000 -0.000000 -0.000000 -0.000000 -0.000000 -0.000000 -0.000000 -0.000000 -0.000000 0.000000 -0.000000 -0.000000 -0.000000 -0.000000 -0.000000 -0.000000 -0.000000 -0.000000 -0.000000 -0.000000 -0.000000 0.000000 0.000001 -0.000000 0.000000 0.000001 -0.000000 0.000000 0.000001 -0.000000 0.000000 
0.030472 43.332710 -14.434349 -24.816813 -5.245314 1.063968 -0.000001 -0.000000 -0.000000 -61.295531 8.225855 11.469280 95.918519 2.786947 5.290370 -10.971017 0.201219 -1.568509 0.000000 -0.000000 -0.000000 0.000000 0.000000 -0.000000 -62.669226 -2.431122 -11.331328 97.466895 9.435511 0.012542 -9.743500 3.508361 -6.745709 -0.000000 0.000000 0.000000 -0.000000 -0.000000 -0.000001 11.776075 3.599472 -2.589438 18.783191 0.839970 0.748235 18.772891 0.839863 0.942018 13.485210 0.887278 -3.203187 -28.201091 7.068898 -1.803482 0.000001 0.000000 0.000000 0.000001 0.000000 0.000000 0.000001 0.000000 0.000000 0.000001 0.000000 0.000000 -0.000000 0.000000 0.000000 0.000001 0.000000 0.000000 -0.000000 0.000000 0.000000 0.000001 0.000000 0.000000 0.000001 0.000000 0.000000 -0.041992 5.321591 -4.713978 -7.265918 -38.091627 -65.471591 -0.000088 -74.000353 -0.000098 38.371210 14.351305 19.045953 -1.606569 -4.712761 -5.980864 8.153742 13.246949 -2.948318 -0.000002 0.000001 0.000001 0.000003 0.000016 0.000010 0.048216 0.815095 -6.770250 0.000001 0.000001 -0.000002 -0.000002 -0.001929 0.015982 0.048447 0.817024 -6.786228 0.000001 0.000001 -0.000001 0.000005 -0.000001 0.000002 0.048223 0.815115 -6.770240 -0.000002 0.000000 -0.000003 -0.018091 4.054276 0.511080 0.037478 -3.239621 -7.277437 0.000001 -0.000001 0.000003 0.000000 -0.000001 -0.000001 1.375893 1.641273 4.721415 -9.612794 20.214112 70.461529 0.000179 76.969941 -0.000177 34.680733 -21.270007 -23.142954 9.595231 -0.209896 6.657185 3.611679 -29.736957 -3.127286 -0.000002 0.000000 0.000000 0.000004 -0.000008 -0.000009 0.188182 -1.609865 13.333318 -0.000000 0.000001 -0.000001 -0.000001 -0.000024 -0.000010 0.188181 -1.609853 13.333328 0.000002 -0.000000 -0.000003 0.000002 -0.000012 -0.000006 0.188176 -1.609853 13.333327 0.000000 -0.000000 -0.000000 -0.000001 -0.000018 -0.000012 0.188174 -1.609857 13.333324 -0.000000 0.000000 -0.000001 0.000000 0.000001 0.000002 -0.000002 -0.000000 -0.000000 -0.000002 -0.000000 -0.000000 -0.000002 -0.000000 -0.000000 -0.000002 -0.000000 -0.000000 -0.000002 -0.000000 -0.000000 -0.000002 -0.000000 -0.000000 -0.000002 -0.000000 -0.000000 -0.000002 -0.000000 -0.000000 -0.000002 -0.000000 -0.000000 -0.000002 -0.000000 -0.000000 -0.000001 -0.000000 -0.000000 -0.000001 -0.000000 -0.000000 -0.000001 -0.000000 -0.000000 
0.031897 43.339218 -14.437056 -24.812354 -5.264677 1.039513 -0.000001 0.000000 -0.000000 -61.296809 8.223105 11.504425 95.909933 2.780245 5.292025 -10.971563 0.199352 -1.561348 0.000000 0.000000 -0.000000 -0.000000 0.000000 0.000000 -62.657574 -2.435543 -11.299739 97.438809 9.438330 0.014979 -9.727124 3.532881 -6.735139 -0.000000 -0.000000 0.000000 -0.000000 0.000000 -0.000001 11.714918 3.544594 -2.672351 18.818800 0.831932 0.748080 18.808514 0.834771 0.939478 13.392135 -0.137943 -2.973163 -28.069999 1.080288 -2.123710 0.000000 0.000000 0.000000 0.000000 0.000000 0.000000 0.000000 0.000000 0.000000 0.000000 0.000000 0.000000 0.000000 0.000000 0.000000 0.000000 0.000000 0.000000 0.000000 0.000000 0.000000 0.000000 0.000000 0.000000 0.000000 0.000000 0.000000 -0.047068 5.317763 -4.638458 -7.322350 -37.950416 -65.594753 -0.000039 -74.005325 -0.000037 38.397117 14.365611 19.096999 -1.606568 -4.712760 -5.980863 8.153741 13.246945 -2.948313 0.000002 -0.000000 0.000004 0.000003 0.000015 0.000012 0.048214 0.815094 -6.770248 0.000002 0.000002 -0.000002 -0.000004 -0.001930 0.015982 0.048445 0.817024 -6.786231 0.000003 0.000001 0.000001 0.000003 -0.000002 0.000004 0.048219 0.815115 -6.770242 -0.000001 0.000000 0.000002 -0.018093 4.054275 0.511081 0.037476 -3.239620 -7.277438 0.000001 0.000000 0.000001 -0.000001 -0.000003 0.000000 1.367107 1.592877 4.839577 -9.684640 20.398539 70.352267 0.000028 76.842271 -0.000047 34.671539 -21.264372 -23.128223 9.595232 -0.209897 6.657189 3.611676 -29.736957 -3.127282 0.000002 0.000000 0.000001 0.000005 -0.000009 -0.000006 0.188181 -1.609865 13.333317 -0.000001 -0.000001 -0.000002 0.000002 -0.000023 -0.000009 0.188180 -1.609853 13.333326 -0.000002 0.000003 -0.000004 0.000006 -0.000010 -0.000005 0.188177 -1.609852 13.333327 0.000002 -0.000000 -0.000000 -0.000001 -0.000018 -0.000010 0.188181 -1.609857 13.333331 -0.000003 -0.000004 -0.000000 0.000001 -0.000001 -0.000001 0.000002 -0.000000 -0.000000 0.000002 0.000000 0.000000 0.000002 -0.000000 -0.000000 0.000002 -0.000000 -0.000000 0.000002 -0.000000 -0.000000 0.000002 0.000000 0.000000 0.000002 -0.000000 -0.000000 0.000002 -0.000000 -0.000000 0.000002 -0.000000 -0.000000 0.000002 0.000000 0.000000 -0.000001 0.000000 -0.000000 -0.000001 0.000000 -0.000000 -0.000001 0.000000 -0.000000 
